<mxfile host="app.diagrams.net" modified="2020-11-30T22:08:39.379Z" agent="5.0 (Windows NT 10.0; WOW64) AppleWebKit/537.36 (KHTML, like Gecko) Chrome/87.0.4280.67 Safari/537.36 Edg/87.0.664.47" etag="tP68GnBpgxrH9Y-U4MA1" version="13.10.4" type="github">
  <diagram id="wGTcTHuJHE5CPNHD4VtJ" name="Page-1">
    <mxGraphModel dx="2145" dy="1112" grid="1" gridSize="10" guides="1" tooltips="1" connect="1" arrows="1" fold="1" page="1" pageScale="1" pageWidth="3300" pageHeight="4681" math="0" shadow="0">
      <root>
        <mxCell id="0" />
        <mxCell id="1" parent="0" />
        <mxCell id="aUiKgl4sltHzzZUIfWi_-46" style="edgeStyle=none;rounded=0;orthogonalLoop=1;jettySize=auto;html=1;entryX=0;entryY=1;entryDx=0;entryDy=0;" parent="1" source="1rgUpgfxhRBXVYCej87L-1" target="1rgUpgfxhRBXVYCej87L-71" edge="1">
          <mxGeometry relative="1" as="geometry" />
        </mxCell>
        <mxCell id="aUiKgl4sltHzzZUIfWi_-47" style="edgeStyle=none;rounded=0;orthogonalLoop=1;jettySize=auto;html=1;entryX=0;entryY=1;entryDx=0;entryDy=0;" parent="1" source="1rgUpgfxhRBXVYCej87L-1" target="1rgUpgfxhRBXVYCej87L-5" edge="1">
          <mxGeometry relative="1" as="geometry" />
        </mxCell>
        <mxCell id="aUiKgl4sltHzzZUIfWi_-48" style="edgeStyle=none;rounded=0;orthogonalLoop=1;jettySize=auto;html=1;entryX=0;entryY=0.5;entryDx=0;entryDy=0;" parent="1" source="1rgUpgfxhRBXVYCej87L-1" target="aUiKgl4sltHzzZUIfWi_-6" edge="1">
          <mxGeometry relative="1" as="geometry" />
        </mxCell>
        <mxCell id="aUiKgl4sltHzzZUIfWi_-49" style="edgeStyle=none;rounded=0;orthogonalLoop=1;jettySize=auto;html=1;entryX=0;entryY=0.5;entryDx=0;entryDy=0;" parent="1" source="1rgUpgfxhRBXVYCej87L-1" target="1rgUpgfxhRBXVYCej87L-6" edge="1">
          <mxGeometry relative="1" as="geometry" />
        </mxCell>
        <mxCell id="aUiKgl4sltHzzZUIfWi_-50" style="edgeStyle=none;rounded=0;orthogonalLoop=1;jettySize=auto;html=1;entryX=0;entryY=0.5;entryDx=0;entryDy=0;" parent="1" source="1rgUpgfxhRBXVYCej87L-1" target="aUiKgl4sltHzzZUIfWi_-5" edge="1">
          <mxGeometry relative="1" as="geometry" />
        </mxCell>
        <mxCell id="aUiKgl4sltHzzZUIfWi_-51" style="edgeStyle=none;rounded=0;orthogonalLoop=1;jettySize=auto;html=1;entryX=0;entryY=0.5;entryDx=0;entryDy=0;" parent="1" source="1rgUpgfxhRBXVYCej87L-1" target="aUiKgl4sltHzzZUIfWi_-7" edge="1">
          <mxGeometry relative="1" as="geometry" />
        </mxCell>
        <mxCell id="RXTPXZxLNaOw1qLdNGDb-2" style="rounded=0;orthogonalLoop=1;jettySize=auto;html=1;exitX=1;exitY=1;exitDx=0;exitDy=0;exitPerimeter=0;entryX=0;entryY=0.5;entryDx=0;entryDy=0;" parent="1" source="1rgUpgfxhRBXVYCej87L-1" target="RXTPXZxLNaOw1qLdNGDb-1" edge="1">
          <mxGeometry relative="1" as="geometry" />
        </mxCell>
        <mxCell id="1rgUpgfxhRBXVYCej87L-1" value="Quản lí&amp;nbsp;" style="shape=umlActor;verticalLabelPosition=bottom;verticalAlign=top;html=1;" parent="1" vertex="1">
          <mxGeometry x="40" y="405" width="40" height="60" as="geometry" />
        </mxCell>
        <mxCell id="1rgUpgfxhRBXVYCej87L-53" style="edgeStyle=none;rounded=0;orthogonalLoop=1;jettySize=auto;html=1;exitX=0.5;exitY=0.5;exitDx=0;exitDy=0;exitPerimeter=0;entryX=0;entryY=0.5;entryDx=0;entryDy=0;" parent="1" source="1rgUpgfxhRBXVYCej87L-2" target="1rgUpgfxhRBXVYCej87L-5" edge="1">
          <mxGeometry relative="1" as="geometry" />
        </mxCell>
        <mxCell id="1rgUpgfxhRBXVYCej87L-75" style="edgeStyle=none;rounded=0;orthogonalLoop=1;jettySize=auto;html=1;exitX=0.5;exitY=0.5;exitDx=0;exitDy=0;exitPerimeter=0;entryX=0;entryY=0.5;entryDx=0;entryDy=0;" parent="1" source="1rgUpgfxhRBXVYCej87L-2" target="1rgUpgfxhRBXVYCej87L-71" edge="1">
          <mxGeometry relative="1" as="geometry" />
        </mxCell>
        <mxCell id="1rgUpgfxhRBXVYCej87L-2" value="Nhân viên&amp;nbsp;" style="shape=umlActor;verticalLabelPosition=bottom;verticalAlign=top;html=1;" parent="1" vertex="1">
          <mxGeometry x="40" y="270" width="30" height="60" as="geometry" />
        </mxCell>
        <mxCell id="1rgUpgfxhRBXVYCej87L-4" value="Đăng nhập" style="ellipse;whiteSpace=wrap;html=1;" parent="1" vertex="1">
          <mxGeometry x="590" y="310" width="140" height="70" as="geometry" />
        </mxCell>
        <mxCell id="aUiKgl4sltHzzZUIfWi_-38" value="&amp;lt;&amp;lt;include&amp;gt;&amp;gt;" style="edgeStyle=none;rounded=0;orthogonalLoop=1;jettySize=auto;html=1;exitX=1;exitY=0.5;exitDx=0;exitDy=0;entryX=0;entryY=0.5;entryDx=0;entryDy=0;dashed=1;" parent="1" source="1rgUpgfxhRBXVYCej87L-5" target="1rgUpgfxhRBXVYCej87L-4" edge="1">
          <mxGeometry relative="1" as="geometry" />
        </mxCell>
        <mxCell id="aUiKgl4sltHzzZUIfWi_-55" value="&amp;lt;&amp;lt;include&amp;gt;&amp;gt;" style="edgeStyle=none;rounded=0;orthogonalLoop=1;jettySize=auto;html=1;exitX=1;exitY=0.5;exitDx=0;exitDy=0;entryX=0;entryY=0.5;entryDx=0;entryDy=0;dashed=1;" parent="1" source="1rgUpgfxhRBXVYCej87L-5" target="1rgUpgfxhRBXVYCej87L-41" edge="1">
          <mxGeometry relative="1" as="geometry" />
        </mxCell>
        <mxCell id="1rgUpgfxhRBXVYCej87L-5" value="Quản lí order" style="ellipse;whiteSpace=wrap;html=1;" parent="1" vertex="1">
          <mxGeometry x="320" y="210" width="140" height="70" as="geometry" />
        </mxCell>
        <mxCell id="aUiKgl4sltHzzZUIfWi_-40" value="&amp;lt;&amp;lt;include&amp;gt;&amp;gt;" style="edgeStyle=none;rounded=0;orthogonalLoop=1;jettySize=auto;html=1;exitX=1;exitY=0.5;exitDx=0;exitDy=0;entryX=0;entryY=0.5;entryDx=0;entryDy=0;dashed=1;" parent="1" source="1rgUpgfxhRBXVYCej87L-6" target="1rgUpgfxhRBXVYCej87L-4" edge="1">
          <mxGeometry relative="1" as="geometry" />
        </mxCell>
        <mxCell id="1rgUpgfxhRBXVYCej87L-6" value="Quản lí nhân viên&amp;nbsp;" style="ellipse;whiteSpace=wrap;html=1;" parent="1" vertex="1">
          <mxGeometry x="320" y="400" width="140" height="70" as="geometry" />
        </mxCell>
        <mxCell id="1rgUpgfxhRBXVYCej87L-24" value="Máy in" style="shape=umlActor;verticalLabelPosition=bottom;verticalAlign=top;html=1;" parent="1" vertex="1">
          <mxGeometry x="860" y="240" width="30" height="60" as="geometry" />
        </mxCell>
        <mxCell id="aUiKgl4sltHzzZUIfWi_-37" value="&amp;lt;&amp;lt;include&amp;gt;&amp;gt;" style="edgeStyle=none;rounded=0;orthogonalLoop=1;jettySize=auto;html=1;exitX=1;exitY=0.5;exitDx=0;exitDy=0;entryX=0;entryY=0.5;entryDx=0;entryDy=0;dashed=1;" parent="1" source="1rgUpgfxhRBXVYCej87L-71" target="1rgUpgfxhRBXVYCej87L-4" edge="1">
          <mxGeometry relative="1" as="geometry" />
        </mxCell>
        <mxCell id="1rgUpgfxhRBXVYCej87L-71" value="Quản lí thức uống" style="ellipse;whiteSpace=wrap;html=1;" parent="1" vertex="1">
          <mxGeometry x="320" y="120" width="140" height="70" as="geometry" />
        </mxCell>
        <mxCell id="1rgUpgfxhRBXVYCej87L-82" value="" style="strokeWidth=2;html=1;shape=mxgraph.flowchart.annotation_1;align=left;pointerEvents=1;" parent="1" vertex="1">
          <mxGeometry x="185" y="90" width="600" height="650" as="geometry" />
        </mxCell>
        <mxCell id="1rgUpgfxhRBXVYCej87L-87" value="" style="endArrow=none;html=1;entryX=1;entryY=0;entryDx=0;entryDy=0;entryPerimeter=0;exitX=1;exitY=1;exitDx=0;exitDy=0;exitPerimeter=0;strokeWidth=2;" parent="1" source="1rgUpgfxhRBXVYCej87L-82" target="1rgUpgfxhRBXVYCej87L-82" edge="1">
          <mxGeometry width="50" height="50" relative="1" as="geometry">
            <mxPoint x="750" y="100" as="sourcePoint" />
            <mxPoint x="800" y="50" as="targetPoint" />
          </mxGeometry>
        </mxCell>
        <mxCell id="aUiKgl4sltHzzZUIfWi_-43" value="&amp;lt;&amp;lt;include&amp;gt;&amp;gt;" style="edgeStyle=none;rounded=0;orthogonalLoop=1;jettySize=auto;html=1;exitX=1;exitY=0.5;exitDx=0;exitDy=0;entryX=0;entryY=0.5;entryDx=0;entryDy=0;dashed=1;" parent="1" source="aUiKgl4sltHzzZUIfWi_-5" target="1rgUpgfxhRBXVYCej87L-4" edge="1">
          <mxGeometry relative="1" as="geometry" />
        </mxCell>
        <mxCell id="fVOLtol83QtwD7QxBRlq-3" value="&amp;lt;&amp;lt;include&amp;gt;&amp;gt;" style="rounded=0;orthogonalLoop=1;jettySize=auto;html=1;entryX=0;entryY=0.5;entryDx=0;entryDy=0;dashed=1;" parent="1" source="aUiKgl4sltHzzZUIfWi_-5" target="fVOLtol83QtwD7QxBRlq-1" edge="1">
          <mxGeometry relative="1" as="geometry" />
        </mxCell>
        <mxCell id="aUiKgl4sltHzzZUIfWi_-5" value="Tính lương" style="ellipse;whiteSpace=wrap;html=1;" parent="1" vertex="1">
          <mxGeometry x="320" y="490" width="140" height="70" as="geometry" />
        </mxCell>
        <mxCell id="aUiKgl4sltHzzZUIfWi_-39" value="&amp;lt;&amp;lt;include&amp;gt;&amp;gt;" style="edgeStyle=none;rounded=0;orthogonalLoop=1;jettySize=auto;html=1;exitX=1;exitY=0.5;exitDx=0;exitDy=0;entryX=0;entryY=0.5;entryDx=0;entryDy=0;dashed=1;" parent="1" source="aUiKgl4sltHzzZUIfWi_-6" target="1rgUpgfxhRBXVYCej87L-4" edge="1">
          <mxGeometry relative="1" as="geometry" />
        </mxCell>
        <mxCell id="aUiKgl4sltHzzZUIfWi_-6" value="Quản lí loại thức uống" style="ellipse;whiteSpace=wrap;html=1;" parent="1" vertex="1">
          <mxGeometry x="320" y="320" width="140" height="70" as="geometry" />
        </mxCell>
        <mxCell id="aUiKgl4sltHzzZUIfWi_-45" value="&amp;lt;&amp;lt;include&amp;gt;&amp;gt;" style="edgeStyle=none;rounded=0;orthogonalLoop=1;jettySize=auto;html=1;exitX=1;exitY=0.5;exitDx=0;exitDy=0;entryX=0;entryY=0.5;entryDx=0;entryDy=0;dashed=1;" parent="1" source="aUiKgl4sltHzzZUIfWi_-7" target="1rgUpgfxhRBXVYCej87L-4" edge="1">
          <mxGeometry relative="1" as="geometry" />
        </mxCell>
        <mxCell id="fVOLtol83QtwD7QxBRlq-4" value="&amp;lt;&amp;lt;extends&amp;gt;&amp;gt;" style="edgeStyle=none;rounded=0;orthogonalLoop=1;jettySize=auto;html=1;entryX=0;entryY=0.5;entryDx=0;entryDy=0;dashed=1;endArrow=none;endFill=0;" parent="1" source="aUiKgl4sltHzzZUIfWi_-7" target="fVOLtol83QtwD7QxBRlq-2" edge="1">
          <mxGeometry relative="1" as="geometry" />
        </mxCell>
        <mxCell id="aUiKgl4sltHzzZUIfWi_-7" value="Thống kê" style="ellipse;whiteSpace=wrap;html=1;" parent="1" vertex="1">
          <mxGeometry x="330" y="580" width="140" height="70" as="geometry" />
        </mxCell>
        <mxCell id="1rgUpgfxhRBXVYCej87L-41" value="Xuất hóa đơn" style="ellipse;whiteSpace=wrap;html=1;" parent="1" vertex="1">
          <mxGeometry x="630" y="150" width="80" height="40" as="geometry" />
        </mxCell>
        <mxCell id="aUiKgl4sltHzzZUIfWi_-52" value="" style="endArrow=none;dashed=1;html=1;dashPattern=1 3;strokeWidth=2;" parent="1" source="1rgUpgfxhRBXVYCej87L-24" target="1rgUpgfxhRBXVYCej87L-41" edge="1">
          <mxGeometry width="50" height="50" relative="1" as="geometry">
            <mxPoint x="790.0000000000002" y="211.03448275862138" as="sourcePoint" />
            <mxPoint x="660.0000000000002" y="220" as="targetPoint" />
          </mxGeometry>
        </mxCell>
        <mxCell id="Ls65YnhED85il4RWpXL9-9" style="rounded=0;orthogonalLoop=1;jettySize=auto;html=1;exitX=0.5;exitY=0.5;exitDx=0;exitDy=0;exitPerimeter=0;" parent="1" source="Ls65YnhED85il4RWpXL9-3" target="Ls65YnhED85il4RWpXL9-6" edge="1">
          <mxGeometry relative="1" as="geometry" />
        </mxCell>
        <mxCell id="Ls65YnhED85il4RWpXL9-3" value="Quản lí&amp;nbsp;" style="shape=umlActor;verticalLabelPosition=bottom;verticalAlign=top;html=1;" parent="1" vertex="1">
          <mxGeometry x="180" y="780" width="40" height="60" as="geometry" />
        </mxCell>
        <mxCell id="Ls65YnhED85il4RWpXL9-10" value="&amp;lt;&amp;lt;include&amp;gt;&amp;gt;" style="rounded=0;orthogonalLoop=1;jettySize=auto;html=1;exitX=1;exitY=0;exitDx=0;exitDy=0;entryX=0;entryY=0.5;entryDx=0;entryDy=0;dashed=1;" parent="1" source="Ls65YnhED85il4RWpXL9-6" target="Ls65YnhED85il4RWpXL9-8" edge="1">
          <mxGeometry relative="1" as="geometry" />
        </mxCell>
        <mxCell id="Ls65YnhED85il4RWpXL9-6" value="Quản lý thức uống" style="ellipse;whiteSpace=wrap;html=1;" parent="1" vertex="1">
          <mxGeometry x="310" y="780" width="140" height="70" as="geometry" />
        </mxCell>
        <mxCell id="Ls65YnhED85il4RWpXL9-8" value="Đăng nhập" style="ellipse;whiteSpace=wrap;html=1;" parent="1" vertex="1">
          <mxGeometry x="630" y="760" width="140" height="70" as="geometry" />
        </mxCell>
        <mxCell id="Ls65YnhED85il4RWpXL9-13" style="edgeStyle=none;rounded=0;orthogonalLoop=1;jettySize=auto;html=1;exitX=0.5;exitY=0.5;exitDx=0;exitDy=0;exitPerimeter=0;entryX=0.03;entryY=0.66;entryDx=0;entryDy=0;entryPerimeter=0;" parent="1" source="Ls65YnhED85il4RWpXL9-12" target="Ls65YnhED85il4RWpXL9-6" edge="1">
          <mxGeometry relative="1" as="geometry" />
        </mxCell>
        <mxCell id="Ls65YnhED85il4RWpXL9-12" value="Nhân viên" style="shape=umlActor;verticalLabelPosition=bottom;verticalAlign=top;html=1;" parent="1" vertex="1">
          <mxGeometry x="180" y="880" width="40" height="60" as="geometry" />
        </mxCell>
        <mxCell id="fVOLtol83QtwD7QxBRlq-5" style="edgeStyle=none;rounded=0;orthogonalLoop=1;jettySize=auto;html=1;dashed=1;endArrow=none;endFill=0;entryX=0;entryY=1;entryDx=0;entryDy=0;entryPerimeter=0;" parent="1" source="fVOLtol83QtwD7QxBRlq-1" target="1rgUpgfxhRBXVYCej87L-24" edge="1">
          <mxGeometry relative="1" as="geometry">
            <mxPoint x="800" y="310" as="targetPoint" />
          </mxGeometry>
        </mxCell>
        <mxCell id="fVOLtol83QtwD7QxBRlq-1" value="In bản lương" style="ellipse;whiteSpace=wrap;html=1;" parent="1" vertex="1">
          <mxGeometry x="660" y="470" width="100" height="50" as="geometry" />
        </mxCell>
        <mxCell id="fVOLtol83QtwD7QxBRlq-6" style="edgeStyle=none;rounded=0;orthogonalLoop=1;jettySize=auto;html=1;dashed=1;endArrow=none;endFill=0;exitX=1;exitY=0.5;exitDx=0;exitDy=0;" parent="1" source="fVOLtol83QtwD7QxBRlq-2" edge="1">
          <mxGeometry relative="1" as="geometry">
            <mxPoint x="880" y="320" as="targetPoint" />
          </mxGeometry>
        </mxCell>
        <mxCell id="fVOLtol83QtwD7QxBRlq-2" value="In thống kê&amp;nbsp;" style="ellipse;whiteSpace=wrap;html=1;" parent="1" vertex="1">
          <mxGeometry x="660" y="550" width="110" height="50" as="geometry" />
        </mxCell>
        <mxCell id="RXTPXZxLNaOw1qLdNGDb-1" value="Quản lí tài khoản" style="ellipse;whiteSpace=wrap;html=1;" parent="1" vertex="1">
          <mxGeometry x="330" y="660" width="140" height="70" as="geometry" />
        </mxCell>
        <mxCell id="RXTPXZxLNaOw1qLdNGDb-5" style="edgeStyle=none;rounded=0;orthogonalLoop=1;jettySize=auto;html=1;exitX=0.5;exitY=0.5;exitDx=0;exitDy=0;exitPerimeter=0;entryX=0;entryY=0.5;entryDx=0;entryDy=0;" parent="1" source="RXTPXZxLNaOw1qLdNGDb-3" target="RXTPXZxLNaOw1qLdNGDb-4" edge="1">
          <mxGeometry relative="1" as="geometry" />
        </mxCell>
        <mxCell id="RXTPXZxLNaOw1qLdNGDb-3" value="Quản lí&amp;nbsp;" style="shape=umlActor;verticalLabelPosition=bottom;verticalAlign=top;html=1;" parent="1" vertex="1">
          <mxGeometry x="490" y="980" width="40" height="60" as="geometry" />
        </mxCell>
        <mxCell id="RXTPXZxLNaOw1qLdNGDb-4" value="Quản lí tài khoản" style="ellipse;whiteSpace=wrap;html=1;" parent="1" vertex="1">
          <mxGeometry x="645" y="975" width="140" height="70" as="geometry" />
        </mxCell>
        <mxCell id="l0nlCIMwBMT43Np2OpwN-1" value="&amp;lt;&amp;lt;include&amp;gt;&amp;gt;" style="edgeStyle=none;rounded=0;orthogonalLoop=1;jettySize=auto;html=1;exitX=1;exitY=0.5;exitDx=0;exitDy=0;entryX=-0.002;entryY=0.602;entryDx=0;entryDy=0;dashed=1;entryPerimeter=0;" edge="1" parent="1" source="RXTPXZxLNaOw1qLdNGDb-1" target="1rgUpgfxhRBXVYCej87L-4">
          <mxGeometry x="-0.1553" y="1" relative="1" as="geometry">
            <mxPoint x="480" y="624.9999999999998" as="sourcePoint" />
            <mxPoint x="600" y="355" as="targetPoint" />
            <mxPoint as="offset" />
          </mxGeometry>
        </mxCell>
      </root>
    </mxGraphModel>
  </diagram>
</mxfile>
